<?xml version="1.0" standalone="no"?><!DOCTYPE svg PUBLIC "-//W3C//DTD SVG 1.1//EN" "http://www.w3.org/Graphics/SVG/1.1/DTD/svg11.dtd"><svg t="1533490817546" class="icon" style="" viewBox="0 0 1024 1024" version="1.1" xmlns="http://www.w3.org/2000/svg" p-id="44813" xmlns:xlink="http://www.w3.org/1999/xlink" width="32" height="32"><defs><style type="text/css"></style></defs><path d="M0 512C0 229.216 229.184 0 512 0c282.784 0 512 229.184 512 512 0 282.784-229.184 512-512 512-282.784 0-512-229.184-512-512z m427.84 68.736l-146.656-146.656a48.096 48.096 0 0 0-68.032-0.128 48.096 48.096 0 0 0 0.16 68l160.832 160.864a76.288 76.288 0 0 0 107.712 0.224l296.96-296.96a48.096 48.096 0 0 0-0.128-68.032 48.096 48.096 0 0 0-68-0.16l-282.88 282.848z" fill="#66cc99" p-id="44814"></path></svg>