<?xml version="1.0" standalone="no"?><!DOCTYPE svg PUBLIC "-//W3C//DTD SVG 1.1//EN" "http://www.w3.org/Graphics/SVG/1.1/DTD/svg11.dtd"><svg t="1533608442251" class="icon" style="" viewBox="0 0 1024 1024" version="1.1" xmlns="http://www.w3.org/2000/svg" p-id="1307" xmlns:xlink="http://www.w3.org/1999/xlink" width="32" height="32"><defs><style type="text/css"></style></defs><path d="M611.652295 827.111224c-1.794927-3.386654-6.299176-7.292595-6.299177-7.292595l-86.088745-77.893043c-12.417731-11.288847-3.059277-26.935188-3.059278-26.935188l61.061372-78.107531c11.921022-15.262521-1.86266-28.109228-1.862659-28.109228l-89.283489-57.426364c-17.204202-11.074359-5.497668-24.146843-5.497669-24.146843l72.666307-73.196882c15.736652-15.804385 1.580439-24.011377 1.580439-24.011377l-93.821606-51.330386C442.342171 368.411514 448.505881 356.727557 448.505881 356.727557l12.417732-36.124309c6.062111-17.892822 6.570109-24.632264 4.21074-29.351002-2.731901-5.520246-9.922896-11.503335-16.25594-16.018873v-0.124178c-0.553153-0.372532-1.128885-0.68862-1.670749-1.061151-5.226736-3.601142-9.460054-6.005666-9.460054-6.005667C178.205735 109.659857-109.501813 373.920471 125.136866 640.438854c90.570417 94.736002 257.013174 177.133294 396.701364 198.378904 0 0 41.712289 4.617138 77.520511 0.801508 14.506168-0.767642 14.144925-9.042366 12.293554-12.508042z" fill="#DD0717" p-id="1308"></path><path d="M185.577352 414.808674c-1.614305 21.448809-20.963388 37.456394-43.145973 35.808222S103.609035 430.105061 105.223341 408.656252s20.9521-37.433816 43.123394-35.751777 38.867499 20.489257 37.230617 41.904199zM158.597008 509.126989c-4.515539-51.115898 41.01238-37.557993 56.884499-21.787475 14.201369 15.973718 21.561697 34.464849 35.717911 50.427279s33.166632 27.906029 47.480889 45.584363c34.600315 40.041539 7.992504 69.528007-40.177005 48.666218-38.856211-16.594605-72.982394-53.238201-89.531844-90.028553-5.28318-15.262521-8.556946-17.22678-10.37445-32.861832z" fill="#FFFFFF" p-id="1309"></path><path d="M947.134242 267.263447c-92.387922-141.437961-303.669978-124.335358-371.9675 23.221158-0.248355-0.259643-0.507998-0.530576 0 0 0 0-31.066906 53.994554-20.7489 81.482895a22.577694 22.577694 0 0 0 5.079981 8.082815l50.31439 42.897617 22.577693 19.281351s17.633179 14.675501 1.241773 30.908862l-71.379378 47.176091s-17.113892 15.036744-0.237065 31.608771l60.77915 59.729288s0.349954 0.316088 0.88053 0.869241c3.262477 3.386654 13.772393 16.730071-4.165584 31.924859l-18.79593 15.894696-37.557993 31.778103s-0.58702 0.440265-1.411106 1.185329c-4.425228 4.041407-51.793229 33.008588-37.625726 56.986099l27.093232 37.140305 19.439394 26.607812c0.77893 1.128885 9.900319 29.847711 37.716037 23.706578 0 0 17.8138-1.86266 112.515936-53.057579 5.881489-3.183455 11.469468-6.773308 17.080025-10.351873 1.817504-1.128885 3.635009-2.257769 5.497668-3.386654 53.6446-34.893825 98.901586-78.886461 139.9817-136.132203 75.27403-105.212052 143.718308-245.024419 63.691673-367.553561z" fill="#DD0717" p-id="1310"></path></svg>