<?xml version="1.0" standalone="no"?><!DOCTYPE svg PUBLIC "-//W3C//DTD SVG 1.1//EN" "http://www.w3.org/Graphics/SVG/1.1/DTD/svg11.dtd"><svg t="1533610941234" class="icon" style="" viewBox="0 0 1024 1024" version="1.1" xmlns="http://www.w3.org/2000/svg" p-id="2168" xmlns:xlink="http://www.w3.org/1999/xlink" width="32" height="32"><defs><style type="text/css"></style></defs><path d="M898.575406 348.683401c-21.131273-49.962925-51.381228-94.829785-89.905636-133.354194-38.523385-38.524408-83.391269-68.77334-133.353171-89.905636-51.738361-21.883403-106.685811-32.979112-163.316599-32.979112s-111.578238 11.095709-163.316599 32.979112c-49.962925 21.132296-94.829785 51.381228-133.354194 89.905636-38.524408 38.524408-68.77334 83.391269-89.905636 133.354194-21.883403 51.738361-32.979112 106.685811-32.979112 163.316599 0 56.630788 11.095709 111.578238 32.979112 163.316599 21.132296 49.961902 51.381228 94.829785 89.905636 133.353171 38.524408 38.524408 83.392292 68.774363 133.354194 89.905636 51.738361 21.884426 106.685811 32.980135 163.316599 32.980135s111.578238-11.095709 163.316599-32.980135c49.961902-21.131273 94.829785-51.381228 133.353171-89.905636 38.524408-38.523385 68.774363-83.391269 89.905636-133.353171 21.884426-51.739385 32.980135-106.685811 32.980135-163.316599C931.555541 455.369212 920.459832 400.421762 898.575406 348.683401zM520.266267 657.936767 520.266267 657.936767l-36.273135 36.214806c-20.033265 20.00052-52.513004 20.00052-72.54627 0L246.312872 529.287735c-20.033265-20.00052-20.033265-52.42807 0-72.428589l0 0c20.033265-20.00052 52.513004-20.00052 72.54627 0L447.718975 585.508177 702.4424 331.202261c20.033265-20.00052 52.513004-20.00052 72.54627 0l0 0c20.033265 20.00052 20.033265 52.42807 0 72.428589L520.266267 657.936767z" p-id="2169" fill="#66cc99"></path></svg>