<?xml version="1.0" standalone="no"?><!DOCTYPE svg PUBLIC "-//W3C//DTD SVG 1.1//EN" "http://www.w3.org/Graphics/SVG/1.1/DTD/svg11.dtd"><svg t="1533449813124" class="icon" style="" viewBox="0 0 1024 1024" version="1.1" xmlns="http://www.w3.org/2000/svg" p-id="26945" xmlns:xlink="http://www.w3.org/1999/xlink" width="32" height="32"><defs><style type="text/css"></style></defs><path d="M262.729262 515.551896h340.198145a19.547195 19.547195 0 0 0 17.391089-17.24578h-355.803565a21.332864 21.332864 0 0 1-16.886599-11.704576 19.562545 19.562545 0 0 0-2.433422 9.450233 19.559475 19.559475 0 0 0 17.534352 19.500123zM246.856759 655.861502a19.60143 19.60143 0 0 0-1.661849 7.882528 19.557428 19.557428 0 0 0 17.532305 19.500122h208.526267a19.550265 19.550265 0 0 0 16.731056-13.93436H264.513908a21.329794 21.329794 0 0 1-17.657149-13.44829zM262.664793 351.953887h340.326059c10.807137-0.002047 19.600407-8.798387 19.600407-19.60757 0-1.746784-0.251733-3.432169-0.682545-5.044899H264.444323c-6.649444-0.001023-12.597923-3.055592-16.522302-7.832386-3.015683 3.448542-4.858658 7.946996-4.858658 12.877285 0 10.809183 8.792247 19.605523 19.60143 19.60757zM864.252181 865.523639c-1.444908 0.390903-2.995217 0.603751-4.637624 0.603751H745.002216c-9.172917 0-15.578814-6.405897-15.578813-15.576767V735.938282c0-7.027044 3.768837-12.417821 9.654894-14.559601v-0.803295c-2.407839-0.137123-4.830005-0.212848-7.265474-0.212848-70.177316 0-129.748063 57.69912-132.89166 127.257336 12.721743 69.501934 69.159126 125.938294 138.663107 138.660036 65.508993-2.960425 120.490212-55.971779 126.667911-120.756271z" fill="#5AA572" p-id="26946"></path><path d="M861.264127 823.37775c-10.771321-44.710294-44.875047-81.490989-88.122013-96.15906v96.15906h88.122013zM864.252181 865.523639c4.38589-1.186012 7.749498-4.077875 9.525957-8.083096h-9.010211a128.024815 128.024815 0 0 1-0.515746 8.083096z" fill="#5AA572" p-id="26947"></path><path d="M756.112252 857.440543c-10.029424 0-17.033955-7.003508-17.033955-17.031908V721.379705c-5.885034 2.14178-9.654894 7.532557-9.654894 14.5596v114.612341c0 9.17087 6.405897 15.576767 15.578813 15.576767h114.612341c1.64343 0 3.193739-0.213871 4.637624-0.603751 0.254803-2.675946 0.429789-5.370311 0.515746-8.083095H756.112252z" fill="#5AA572" p-id="26948"></path><path d="M745.002216 720.363562c2.802836 0 5.342682 0.604774 7.524371 1.696641a129.427768 129.427768 0 0 1 20.615527 5.157463v-12.130271c0-10.027377-7.002484-17.030885-17.029862-17.030885-10.029424 0-17.033955 7.003508-17.033955 17.030885v5.489014c0.772596 0.044002 1.544169 0.094144 2.313695 0.152473a18.059308 18.059308 0 0 1 3.610224-0.36532z" fill="#2A2B2D" p-id="26949"></path><path d="M912.271848 672.932296c-38.646182-38.645159-90.171696-59.927881-145.085376-59.927881-54.91675 0-106.442264 21.283746-145.088446 59.928904s-59.927881 90.171696-59.927881 145.085376c0 54.915727 21.282722 106.442264 59.927881 145.087423S712.269721 1023.032976 767.186472 1023.032976c54.913681 0 106.439194-21.282722 145.085376-59.927881 38.643112-38.644135 59.925834-90.170672 59.925834-145.087423 0-54.913681-21.282722-106.439194-59.925834-145.085376zM767.186472 988.971206c-10.064216 0-19.958564-0.926092-29.602202-2.691296-1.915629 0.086981-3.838422 0.13917-5.771447 0.13917-72.110341 0-133.030829-60.919465-133.030829-133.028783 0-1.932002 0.052189-3.854794 0.139169-5.770423a164.308183 164.308183 0 0 1-2.691295-29.602202c0-92.665493 78.288041-170.951487 170.95558-170.951487 92.665493 0 170.950464 78.285994 170.950464 170.951487 0.001023 92.666516-78.284971 170.953534-170.94944 170.953534z" fill="#2A2B2D" p-id="26950"></path><path d="M875.187231 850.551646c0 2.536776-0.505513 4.852518-1.409093 6.888897h7.654331c10.025331 0 17.028838-7.003508 17.028838-17.031908s-7.002484-17.030885-17.028838-17.030885h-20.168342a128.708384 128.708384 0 0 1 2.295276 12.041244c7.003508 1.571798 11.627828 7.347339 11.627828 15.132652zM741.391992 720.727859c-0.769526-0.058328-1.541099-0.10847-2.313695-0.152473v0.803295a16.250102 16.250102 0 0 1 2.313695-0.650822zM598.922187 847.619874a127.156028 127.156028 0 0 0-0.13917 5.770423c0 72.108295 60.920488 133.028782 133.030829 133.028783 1.933025 0 3.855818-0.052189 5.771447-0.13917-69.50398-12.720719-125.941364-69.15708-138.663106-138.660036z" fill="#2A2B2D" p-id="26951"></path><path d="M760.576937 735.938282v99.036597h99.03762c1.385557 0 2.698458 0.162706 3.944846 0.443092a128.771829 128.771829 0 0 0-2.295276-12.041244H773.142114v-96.159061a129.538285 129.538285 0 0 0-20.615527-5.157463c4.957919 2.482541 8.05035 7.511067 8.05035 13.878079zM863.559403 835.417971a127.706567 127.706567 0 0 1 1.280156 17.972326c0 1.353834-0.028653 2.703575-0.071632 4.049223h9.010211c0.903579-2.036379 1.409093-4.352121 1.409093-6.888897 0-7.78429-4.624321-13.55983-11.627828-15.132652zM745.002216 720.363562c-1.260713 0-2.464121 0.132006-3.610224 0.364297 3.751441 0.282433 7.465019 0.729617 11.135618 1.332344-2.182712-1.091868-4.722558-1.696642-7.525394-1.696641z" fill="#2A2B2D" p-id="26952"></path><path d="M756.112252 857.440543h108.655675c0.042979-1.345648 0.071631-2.695389 0.071632-4.049222 0-6.081509-0.443092-12.08013-1.280156-17.972327a17.903765 17.903765 0 0 0-3.944846-0.443092h-99.03762v-99.036597c0-6.368034-3.092431-11.395538-8.05035-13.878079a127.931694 127.931694 0 0 0-11.135618-1.332344 16.117073 16.117073 0 0 0-2.313695 0.650823v119.02893c0.001023 10.027377 7.005554 17.031908 17.034978 17.031908zM262.729262 476.55779H602.925361a19.555381 19.555381 0 0 1 17.534351 19.493983c0 0.763386-0.057305 1.512447-0.142239 2.254343h15.287171a21.337981 21.337981 0 0 0 19.12457-21.270442 21.329794 21.329794 0 0 0-19.126617-21.264303H264.514931a21.332864 21.332864 0 0 0-19.126616 21.264303c0 3.431146 0.803295 6.682189 2.240017 9.565866a19.541055 19.541055 0 0 1 15.10093-10.04375z" fill="#2A2B2D" p-id="26953"></path><path d="M264.514931 498.30714h355.802542c0.084934-0.741897 0.14224-1.490957 0.142239-2.254344a19.555381 19.555381 0 0 0-17.534351-19.493983H262.729262a19.539009 19.539009 0 0 0-15.10093 10.04375 21.332864 21.332864 0 0 0 16.886599 11.704577zM491.980549 626.771977H264.513908a21.333888 21.333888 0 0 0-19.12457 21.266349c0 2.756787 0.518816 5.395894 1.467421 7.823176a19.543102 19.543102 0 0 1 15.871479-11.613502h208.531384a19.555381 19.555381 0 0 1 17.528212 19.49603 19.71911 19.71911 0 0 1-0.801249 5.564739h3.989871a21.335934 21.335934 0 0 0 19.12457-21.270443 21.332864 21.332864 0 0 0-19.120477-21.266349z" fill="#2A2B2D" p-id="26954"></path><path d="M471.259622 644.248H262.728238a19.539009 19.539009 0 0 0-15.871479 11.613502 21.326724 21.326724 0 0 0 17.657149 13.447267h223.472677c0.518816-1.76725 0.801249-3.63376 0.801249-5.564739 0-10.06217-7.531534-18.431791-17.528212-19.49603zM262.664793 312.74284h340.326059c9.061376 0 16.683984 6.189979 18.917862 14.557554h13.765515c11.788487-0.00307 21.379936-9.596566 21.379936-21.388123 0-11.790534-9.591449-21.383006-21.379936-21.383006H264.444323c-11.790534 0-21.38096 9.592472-21.38096 21.383006 0 5.14109 1.825578 9.863648 4.858658 13.555738 3.595898-4.111644 8.863878-6.725168 14.742772-6.725169z" fill="#2A2B2D" p-id="26955"></path><path d="M264.444323 327.300394h357.464391c-2.233877-8.367575-9.857509-14.557554-18.917862-14.557554H262.664793c-5.878894 0-11.146874 2.613524-14.742772 6.725169 3.924379 4.776793 9.872858 7.831362 16.522302 7.832385z" fill="#2A2B2D" p-id="26956"></path><path d="M140.089084 912.737964c-12.079106 0-23.852244-4.951779-32.283264-13.570064-8.625448-8.563026-13.574157-20.439518-13.577227-32.583092V89.164762c0.00307-12.199856 4.737908-23.683399 13.32754-32.328289 8.463766-8.617261 20.253276-13.568017 32.345686-13.583367h65.741283c11.866259 0 21.568225-9.650801 21.626553-21.513989a21.464871 21.464871 0 0 0-6.251377-15.326057 21.464871 21.464871 0 0 0-15.249309-6.41306h-65.618487c-23.674189 0.12689-45.865607 9.474792-62.486146 26.323529-16.626679 16.847713-25.678846 39.160905-25.488511 62.841233v777.661546c-0.00307 48.508807 39.46278 88.186482 87.968517 88.448448h363.601159a313.251424 313.251424 0 0 1-11.499916-42.536792H140.089084zM380.431987 42.535769h155.294902a21.334911 21.334911 0 0 0 19.128663-21.270443 21.333888 21.333888 0 0 0-19.128663-21.265326H380.434034a21.335934 21.335934 0 0 0-19.129686 21.265326 21.333888 21.333888 0 0 0 19.127639 21.270443zM710.465632 42.535769h65.363684c12.07706 0 23.850198 4.949732 32.286334 13.564947 8.628518 8.556886 13.577227 20.433378 13.577226 32.585139v445.815625a298.891368 298.891368 0 0 1 42.058908 9.328459V89.153506c0.190335-23.670096-8.861832-45.983287-25.48851-62.831001-16.382109-16.604166-39.157835-26.197662-62.482054-26.322505h-65.315588a21.332864 21.332864 0 0 0-19.122523 21.265326 21.330818 21.330818 0 0 0 19.122523 21.270443z" fill="#2A2B2D" p-id="26957"></path></svg>