<?xml version="1.0" standalone="no"?><!DOCTYPE svg PUBLIC "-//W3C//DTD SVG 1.1//EN" "http://www.w3.org/Graphics/SVG/1.1/DTD/svg11.dtd"><svg t="1533449833435" class="icon" style="" viewBox="0 0 1024 1024" version="1.1" xmlns="http://www.w3.org/2000/svg" p-id="27654" xmlns:xlink="http://www.w3.org/1999/xlink" width="32" height="32"><defs><style type="text/css"></style></defs><path d="M762.1 495.6c-43.4 0-81 21.8-103.2 59.7-11.8 18.9-25 35-28.8 35.2-3.8-0.2-17-16.4-28.8-35.3-22.2-37.9-59.8-59.6-103.1-59.6-31.8 0-61.5 12.1-83.6 34.1-22 22-34.2 51.5-34.2 83.1v1.5c-1.3 29.1 11.8 61.1 34.2 83.5l4.1 4.1 0.2 0.7c17.2 19.9 120.4 132.7 181.4 199.2l0.7 0.8c7.9 9.2 19.5 19.3 27.4 24l1.7 1 1.7-1c7.9-4.7 19.4-14.8 27.4-23.9l0.8-0.9c61.1-66.5 164.2-179.3 181-198.5l1.3-2.3 3.5-3.3c22.4-22.3 35.5-54.3 34.2-83.5v-1.5c0-31.6-12.1-61.1-34.2-83.1-22.2-21.9-51.8-34-83.7-34z" fill="#F0A6A6" p-id="27655"></path><path d="M229.8 501.6c-12.1 0-17.7 5-17.7 15.7 0 4.7 1.7 15.7 17.7 15.7h85.7c13.2 0 15.8-5.8 15.8-15.7 0-10.7-5-15.7-15.8-15.7h-85.7zM229.8 248.4h200c17.3 0 19.6-7.9 19.6-15.7 0-7.6-6.1-15.7-19.6-15.7h-200c-12.6 0-19.6 5.6-19.6 15.7 0 7.6 6.1 15.7 19.6 15.7zM677.9 365.5c0-10.1-7-15.7-19.6-15.7H229.8c-12.1 0-17.7 5-17.7 15.7s5.6 15.7 17.7 15.7h428.5c17.2 0 19.6-7.9 19.6-15.7zM794.7 466.1c-53.3 0-101.4 27.8-128.6 74.3l-2.9 4.9-0.5-0.9-0.5 0.9-2.9-4.9c-27.2-46.5-75.3-74.3-128.6-74.3-82.5 0-147.2 64.4-147.2 146.8-1.7 37.7 14.3 77.2 43.3 106.3 4 5.7 134.4 148.1 184.4 202.6 0.3 0.3 28.7 33.4 51.4 36.5 22.6-3.1 51.1-36.2 51.5-36.6 49.9-54.4 180.4-196.8 184.8-203.1 28.6-28.4 44.6-67.9 42.8-105.8 0.2-82.3-64.4-146.7-147-146.7z m83.6 231.6l-3.5 3.3-1.3 2.3c-16.8 19.3-119.9 132-181 198.5l-0.8 0.9c-7.9 9.2-19.4 19.2-27.4 23.9l-1.7 1-1.7-1c-7.9-4.7-19.5-14.8-27.4-24l-0.7-0.8c-61.1-66.5-164.2-179.3-181.4-199.2l-0.2-0.7-4.1-4.1c-22.4-22.3-35.5-54.3-34.2-83.5v-1.5c0-31.6 12.1-61.1 34.2-83.1 22.1-22 51.8-34.1 83.6-34.1 43.4 0 81 21.8 103.1 59.6 11.8 18.9 25 35.1 28.8 35.3 3.8-0.2 17-16.4 28.8-35.2 22.2-37.9 59.8-59.7 103.2-59.7 31.8 0 61.5 12.1 83.6 34.1 22 22 34.2 51.5 34.2 83.1v1.5c1.4 29.1-11.7 61.1-34.1 83.4z" fill="#333333" p-id="27656"></path><path d="M372.6 882.3h-189c-39.5 0-71.6-32.1-71.6-71.6V164.9c0-39.5 32.1-71.6 71.6-71.6h529.5c39.5 0 71.6 32.1 71.6 71.6v197c0 8 6.5 14.5 14.5 14.5s14.5-6.5 14.5-14.5v-197c0-55.4-45.1-100.5-100.5-100.5H183.6c-55.4 0-100.5 45.1-100.5 100.5v645.7c0 55.4 45.1 100.5 100.5 100.5h189c8 0 14.5-6.5 14.5-14.5 0-7.8-6.5-14.3-14.5-14.3z" fill="#333333" p-id="27657"></path></svg>