<?xml version="1.0" standalone="no"?><!DOCTYPE svg PUBLIC "-//W3C//DTD SVG 1.1//EN" "http://www.w3.org/Graphics/SVG/1.1/DTD/svg11.dtd"><svg t="1533449773549" class="icon" style="" viewBox="0 0 1151 1024" version="1.1" xmlns="http://www.w3.org/2000/svg" p-id="24932" xmlns:xlink="http://www.w3.org/1999/xlink" width="35.96875" height="32"><defs><style type="text/css"></style></defs><path d="M170.381985 692.630525L108.250209 449.441201a37.577982 37.577982 0 0 1-1.281068-9.821518 65.120934 65.120934 0 0 1 0-11.102585 93.30442 93.30442 0 0 1 67.042535-83.05588 97.361134 97.361134 0 0 1 83.696414 13.451209l143.266055 95.439533L522.035029 320.266889a160.346956 160.346956 0 0 1 23.486239-186.822352c30.105088-31.386155 27.969975-48.894078 71.526272-48.894078s64.053378 17.934946 93.090909 50.175146a159.492911 159.492911 0 0 1 21.351126 185.541284l121.914929 135.152627 144.974145-96.507089a97.361134 97.361134 0 0 1 83.696414-13.451209 93.517932 93.517932 0 0 1 67.256046 83.05588 64.053378 64.053378 0 0 1 0 11.102585 49.321101 49.321101 0 0 1 0 9.821518l-60.850709 242.975813a17.934946 17.934946 0 0 1 0 3.629692l-52.310258 168.673895c-16.013344 78.999166-73.020851 158.211843-165.044204 158.211843H388.16347c-92.023353 0-149.457882-79.212677-164.830693-158.211843l-53.591326-172.303587c-5.337781-21.351126 921.301084-21.351126 918.098416 0z" fill="#FFED00" p-id="24933"></path><path d="M1108.550459 343.966639a64.053378 64.053378 0 0 1 0 11.102585 37.577982 37.577982 0 0 1-1.281068 9.821518l-61.491243 243.189325a38.645538 38.645538 0 1 1-74.72894-19.429525l60.423686-236.356964a16.013344 16.013344 0 0 0-12.810675-16.86739 21.351126 21.351126 0 0 0-18.361969 3.843203l-147.749791 98.428691-23.272728 15.37281a37.791493 37.791493 0 0 1-21.351125 6.405338 38.432027 38.432027 0 0 1-30.105088-12.597164l-164.190159-181.911593a38.645538 38.645538 0 0 1 0-52.096747 81.988324 81.988324 0 0 0 21.351126-45.264387 80.280234 80.280234 0 0 0-79.212677-89.674729 79.426188 79.426188 0 0 0-58.288574 24.980817 80.920767 80.920767 0 0 0-21.351126 64.053378 82.628857 82.628857 0 0 0 21.351126 46.118432 39.07256 39.07256 0 0 1 0 52.096747l-164.190158 181.911593a38.432027 38.432027 0 0 1-49.961635 6.191827l-23.272727-15.372811-147.749792-98.428691a21.351126 21.351126 0 0 0-18.575479-3.843202 16.440367 16.440367 0 0 0-12.810676 16.867389l60.423687 236.356964a38.859049 38.859049 0 0 1-27.756464 47.3995 37.150959 37.150959 0 0 1-9.608007 1.281068 38.645538 38.645538 0 0 1-37.36447-29.251043L4.270225 365.104254a49.321101 49.321101 0 0 1 0-9.821518 64.053378 64.053378 0 0 1 0-11.102586 93.517932 93.517932 0 0 1 67.256047-83.05588 98.001668 98.001668 0 0 1 83.696414 13.237698q71.312761 48.040033 143.266055 95.439533l121.060884-134.085071a157.571309 157.571309 0 0 1-19.216014-60.850709 159.279399 159.279399 0 0 1 42.702252-125.758131 156.930776 156.930776 0 0 1 228.670559 1.067556 159.065888 159.065888 0 0 1 41.421184 125.971643 160.98749 160.98749 0 0 1-19.002502 59.783153l121.914929 135.152627 144.974145-96.720601a97.574646 97.574646 0 0 1 83.482903-13.237698 93.731443 93.731443 0 0 1 64.053378 82.842369z m-113.160968 354.001668a38.859049 38.859049 0 0 1 27.969975 47.185988l-30.745621 120.633862c-16.013344 78.785655-73.020851 158.211843-165.044204 158.211843H281.834862c-92.023353 0-149.457882-79.212677-165.044203-158.211843l-30.745621-120.42035A38.709591 38.709591 0 1 1 160.98749 725.938282l30.959132 121.487906a6.405338 6.405338 0 0 1 0 2.135113c8.753962 44.623853 37.577982 96.720601 89.461218 96.720601h545.734779c51.883236 0 80.493745-52.096747 89.247706-96.720601v-2.135113L947.349458 725.938282a38.218515 38.218515 0 0 1 48.040033-27.969975z" fill="#333333" p-id="24934"></path></svg>