<?xml version="1.0" standalone="no"?><!DOCTYPE svg PUBLIC "-//W3C//DTD SVG 1.1//EN" "http://www.w3.org/Graphics/SVG/1.1/DTD/svg11.dtd"><svg t="1534037406487" class="icon" style="" viewBox="0 0 1092 1024" version="1.1" xmlns="http://www.w3.org/2000/svg" p-id="1982" xmlns:xlink="http://www.w3.org/1999/xlink" width="213.28125" height="200"><defs><style type="text/css"></style></defs><path d="M214.265546 25.815126h665.169748c103.260504 0 187.589916 84.329412 187.589916 188.45042 0 89.492437-39.583193 156.611765-119.610084 199.636975V929.344538c0 37.862185-30.978151 68.840336-68.840336 68.840336H228.033613c-37.862185 0-68.840336-30.978151-68.840336-68.840336V413.902521C70.561345 384.645378 25.815126 317.52605 25.815126 214.265546 25.815126 110.144538 110.144538 25.815126 214.265546 25.815126z" fill="#B68775" p-id="1983"></path><path d="M878.57479 1019.697479H228.033613c-49.909244 0-90.352941-40.443697-90.352941-90.352941V429.391597C49.048739 394.110924 4.302521 321.828571 4.302521 214.265546 4.302521 98.097479 98.097479 4.302521 214.265546 4.302521h665.169748c115.307563 0 209.963025 93.794958 209.963025 209.963025 0 92.934454-40.443697 164.356303-119.610084 212.544538V929.344538c-0.860504 49.909244-41.304202 90.352941-91.213445 90.352941zM214.265546 47.327731c-92.07395 0-166.937815 74.863866-166.937815 166.937815 0 94.655462 38.722689 153.169748 118.74958 179.845378 8.605042 2.581513 14.628571 11.186555 14.628571 20.652101V929.344538c0 25.815126 21.512605 47.327731 47.327731 47.327731h650.541177c25.815126 0 47.327731-21.512605 47.327731-47.327731V413.902521c0-7.744538 4.302521-15.489076 11.186555-18.931092 73.142857-40.443697 108.423529-98.957983 108.423529-180.705883 0-92.07395-74.863866-166.937815-166.937815-166.937815H214.265546z" fill="#1E1E1E" p-id="1984"></path><path d="M230.615126 86.05042h641.07563c74.863866 0 135.959664 61.095798 135.959664 135.959664 0 64.537815-43.02521 112.72605-129.07563 143.704202V860.504202c0 37.862185-30.978151 68.840336-68.840336 68.840336H300.315966c-37.862185 0-68.840336-30.978151-68.840336-68.840336V365.714286C140.262185 344.201681 94.655462 296.013445 94.655462 222.010084 94.655462 147.146218 155.751261 86.05042 230.615126 86.05042z" fill="#F7D06F" p-id="1985"></path><path d="M808.87395 950.857143H300.315966c-49.909244 0-90.352941-40.443697-90.352941-90.352941V382.063866c-66.258824-18.931092-136.820168-61.956303-136.820168-160.914286 0-86.910924 70.561345-157.472269 157.472269-157.472269h641.07563c86.910924 0 157.472269 70.561345 157.472269 157.472269 0 70.561345-43.02521 123.912605-129.07563 159.193277V860.504202c-0.860504 49.909244-41.304202 90.352941-91.213445 90.352941z m-578.258824-843.294118c-62.816807 0-114.447059 50.769748-114.447059 114.447059 0 23.233613 0 95.515966 120.470588 123.052101 9.465546 2.581513 16.34958 11.186555 16.34958 20.652101V860.504202c0 25.815126 21.512605 47.327731 47.327731 47.327731H808.87395c25.815126 0 47.327731-21.512605 47.327731-47.327731V365.714286c0-8.605042 6.023529-17.210084 13.768067-19.791597 77.445378-28.396639 114.447059-68.840336 114.447059-123.912605 0-62.816807-50.769748-114.447059-114.447059-114.447059H230.615126z" fill="#1E1E1E" p-id="1986"></path><path d="M363.993277 335.596639h-56.793277c-7.744538 0-14.628571-7.744538-14.628571-17.210084s6.884034-17.210084 14.628571-17.210084h56.793277c7.744538 0 14.628571 7.744538 14.628572 17.210084s-6.884034 17.210084-14.628572 17.210084zM794.245378 335.596639h-56.793277c-7.744538 0-14.628571-7.744538-14.628572-17.210084s6.884034-17.210084 14.628572-17.210084h56.793277c7.744538 0 14.628571 7.744538 14.628572 17.210084s-6.884034 17.210084-14.628572 17.210084z" fill="#FF6376" p-id="1987"></path><path d="M516.302521 318.386555c-28.396639 0-51.630252-23.233613-51.630252-52.490757 0-8.605042 6.884034-16.34958 15.489076-16.34958s15.489076 6.884034 15.489075 16.34958c0 11.186555 8.605042 20.652101 19.791597 20.652101s19.791597-9.465546 19.791596-20.652101c0-8.605042 6.884034-16.34958 15.489076-16.34958s15.489076 6.884034 15.489076 16.34958C567.932773 295.152941 544.69916 318.386555 516.302521 318.386555z" fill="#3F4963" p-id="1988"></path><path d="M585.142857 318.386555c-28.396639 0-51.630252-23.233613-51.630252-52.490757 0-8.605042 6.884034-16.34958 15.489076-16.34958s15.489076 6.884034 15.489075 16.34958c0 11.186555 8.605042 20.652101 19.791597 20.652101s19.791597-9.465546 19.791597-20.652101c0-8.605042 6.884034-16.34958 15.489075-16.34958s15.489076 6.884034 15.489076 16.34958C636.773109 295.152941 613.539496 318.386555 585.142857 318.386555zM793.384874 275.361345c-8.605042 0-15.489076-6.884034-15.489076-15.489076 0-6.884034-5.163025-12.907563-12.047059-12.907563-6.884034 0-12.047059 6.023529-12.047058 12.907563 0 8.605042-6.884034 15.489076-15.489076 15.489076s-15.489076-6.884034-15.489076-15.489076c0-24.094118 18.931092-44.746218 43.02521-44.746219s43.02521 19.791597 43.025211 44.746219c0 8.605042-6.884034 15.489076-15.489076 15.489076z" fill="#3F4963" p-id="1989"></path><path d="M621.284034 249.546218c-8.605042 0-15.489076 6.884034-15.489076 16.34958 0 11.186555-8.605042 20.652101-19.791597 20.652101-11.186555 0-19.791597-9.465546-19.791596-20.652101 0-8.605042-6.884034-16.34958-15.489076-16.34958s-15.489076 6.884034-15.489076 16.34958c0 11.186555-8.605042 20.652101-19.791596 20.652101-11.186555 0-19.791597-9.465546-19.791597-20.652101 0-8.605042-6.884034-16.34958-15.489075-16.34958s-15.489076 6.884034-15.489076 16.34958c0 29.257143 22.373109 52.490756 50.769748 52.490757 13.768067 0 25.815126-6.023529 35.280672-14.628572 9.465546 9.465546 21.512605 14.628571 35.280672 14.628572 28.396639 0 50.769748-23.233613 50.769748-52.490757 0-9.465546-6.884034-16.34958-15.489075-16.34958z" fill="#262626" p-id="1990"></path><path d="M326.991597 215.12605c-14.628571 0-25.815126 11.186555-25.815126 25.815126s11.186555 25.815126 25.815126 25.815127 25.815126-11.186555 25.815126-25.815127-11.186555-25.815126-25.815126-25.815126zM314.084034 120.470588c-12.047059 0-21.512605 9.465546-21.512605 21.512605s9.465546 21.512605 21.512605 21.512605 21.512605-9.465546 21.512605-21.512605-9.465546-21.512605-21.512605-21.512605z" fill="#1E1E1E" p-id="1991"></path><path d="M765.848739 215.12605c-24.094118 0-43.02521 19.791597-43.02521 44.746219 0 8.605042 6.884034 15.489076 15.489076 15.489076s15.489076-6.884034 15.489076-15.489076c0-6.884034 5.163025-12.907563 12.047058-12.907563s12.047059 6.023529 12.047059 12.907563c0 8.605042 6.884034 15.489076 15.489076 15.489076s15.489076-6.884034 15.489076-15.489076c0-24.954622-18.931092-44.746218-43.025211-44.746219z" fill="#333333" p-id="1992"></path><path d="M282.245378 750.359664L413.042017 549.001681c5.163025-7.744538 15.489076-10.32605 24.094117-5.163026l50.769748 32.69916c7.744538 5.163025 10.32605 15.489076 5.163026 24.094118L361.411765 801.989916c-5.163025 7.744538-15.489076 10.32605-24.094118 5.163025L287.408403 774.453782c-8.605042-5.163025-10.32605-15.489076-5.163025-24.094118zM445.741176 750.359664L576.537815 549.001681c5.163025-7.744538 15.489076-10.32605 24.094118-5.163026l50.769748 32.69916c7.744538 5.163025 10.32605 15.489076 5.163025 24.094118L524.907563 801.989916c-5.163025 7.744538-15.489076 10.32605-24.094118 5.163025L450.904202 774.453782c-8.605042-5.163025-10.32605-15.489076-5.163026-24.094118zM617.842017 750.359664L748.638655 549.001681c5.163025-7.744538 15.489076-10.32605 24.094118-5.163026l50.769748 32.69916c7.744538 5.163025 10.32605 15.489076 5.163025 24.094118L697.008403 801.989916c-5.163025 7.744538-15.489076 10.32605-24.094117 5.163025L623.005042 774.453782c-8.605042-5.163025-10.32605-15.489076-5.163025-24.094118z" fill="#F7DD01" p-id="1993"></path><path d="M146.285714 253.848739h-4.302521c-12.047059-2.581513-18.931092-13.768067-17.210084-24.954621 13.768067-73.142857 60.235294-111.865546 133.378152-111.865547 12.047059 0 21.512605 9.465546 21.512605 21.512605s-9.465546 21.512605-21.512605 21.512606c-51.630252 0-80.887395 24.094118-90.352942 77.445378-2.581513 9.465546-11.186555 16.34958-21.512605 16.349579z" fill="#1E1E1E" p-id="1994"></path></svg>