<?xml version="1.0" standalone="no"?><!DOCTYPE svg PUBLIC "-//W3C//DTD SVG 1.1//EN" "http://www.w3.org/Graphics/SVG/1.1/DTD/svg11.dtd"><svg t="1534037356203" class="icon" style="" viewBox="0 0 1024 1024" version="1.1" xmlns="http://www.w3.org/2000/svg" p-id="1538" xmlns:xlink="http://www.w3.org/1999/xlink" width="200" height="200"><defs><style type="text/css"></style></defs><path d="M145.365035 630.153846l741.862937 5.728671c31.507692 0 57.286713 25.779021 56.570629 58.002798 0 6.444755-1.432168 12.88951-3.580419 18.618182l-95.955245 267.0993c-7.876923 22.198601-29.359441 37.952448-52.99021 37.952448l-548.520279 6.444755c-24.346853 0-46.545455-15.037762-54.422378-38.668531L91.658741 706.058741c-10.025175-30.075524 5.728671-62.299301 35.088112-73.040559 5.728671-2.148252 12.173427-2.864336 18.618182-2.864336z" fill="#FFD89A" p-id="1539"></path><path d="M242.036364 1024c-24.346853 0-45.829371-15.037762-54.422378-38.668531L90.942657 706.058741c-5.012587-14.321678-4.296503-30.075524 2.864336-43.681119 6.444755-13.605594 18.618182-24.346853 32.93986-29.35944 5.728671-2.148252 12.173427-2.864336 18.618182-2.864336l741.862937 5.728671c15.037762 0 29.359441 6.444755 40.100699 17.186014s16.46993 25.062937 16.46993 40.816784c0 6.444755-1.432168 12.88951-3.580419 18.618182l-95.955245 267.0993c-7.876923 22.198601-29.359441 37.952448-52.99021 37.952448l-549.236363 6.444755zM144.648951 665.958042c-2.148252 0-5.012587 0.716084-7.160839 1.432168-11.457343 3.58042-17.186014 16.46993-12.889511 27.211189l96.671329 279.272727c2.864336 8.593007 11.457343 14.321678 20.766434 14.321678l548.520279-6.444755c8.593007 0 17.186014-5.728671 20.05035-14.321678l95.955245-267.099301c0.716084-2.148252 1.432168-5.012587 1.432168-7.160839 0-12.173427-9.309091-21.482517-21.482518-21.482518L144.648951 665.958042z" fill="#171717" p-id="1540"></path><path d="M311.496503 762.629371m-25.062937 0a25.062937 25.062937 0 1 0 50.125875 0 25.062937 25.062937 0 1 0-50.125875 0Z" fill="#3F4963" p-id="1541"></path><path d="M343.72028 852.13986h-57.286714c-7.876923 0-14.321678-6.444755-14.321678-14.321678s6.444755-14.321678 14.321678-14.321679h57.286714c7.876923 0 14.321678 6.444755 14.321678 14.321679s-6.444755 14.321678-14.321678 14.321678zM744.727273 852.13986h-57.286714c-7.876923 0-14.321678-6.444755-14.321678-14.321678s6.444755-14.321678 14.321678-14.321679h57.286714c7.876923 0 14.321678 6.444755 14.321678 14.321679s-6.444755 14.321678-14.321678 14.321678z" fill="#FF6376" p-id="1542"></path><path d="M483.356643 830.657343c-25.779021 0-46.545455-19.334266-46.545454-43.681119 0-7.160839 6.444755-13.605594 14.321678-13.605595s14.321678 5.728671 14.321678 13.605595c0 9.309091 7.876923 17.186014 17.902098 17.186014s17.902098-7.876923 17.902098-17.186014c0-7.160839 6.444755-13.605594 14.321679-13.605595s14.321678 5.728671 14.321678 13.605595c0 24.346853-20.766434 43.681119-46.545455 43.681119z" fill="#3F4963" p-id="1543"></path><path d="M547.804196 830.657343c-25.779021 0-46.545455-19.334266-46.545455-43.681119 0-7.160839 6.444755-13.605594 14.321679-13.605595s14.321678 5.728671 14.321678 13.605595c0 9.309091 7.876923 17.186014 17.902098 17.186014s17.902098-7.876923 17.902098-17.186014c0-7.160839 6.444755-13.605594 14.321678-13.605595s14.321678 5.728671 14.321678 13.605595c0 24.346853-20.766434 43.681119-46.545454 43.681119zM737.566434 787.692308c-7.876923 0-14.321678-5.728671-14.321679-12.889511 0-5.728671-5.012587-10.741259-11.457342-10.741259-6.444755 0-11.457343 5.012587-11.457343 10.741259 0 7.160839-6.444755 12.88951-14.321678 12.889511s-14.321678-5.728671-14.321679-12.889511c0-20.05035 17.902098-37.236364 39.384616-37.236363s39.384615 16.46993 39.384615 37.236363c1.432168 7.160839-5.012587 12.88951-12.88951 12.889511z" fill="#3F4963" p-id="1544"></path><path d="M580.027972 773.370629c-7.876923 0-14.321678 5.728671-14.321678 13.605595 0 9.309091-7.876923 17.186014-17.902098 17.186014s-17.902098-7.876923-17.902098-17.186014c0-7.160839-6.444755-13.605594-14.321678-13.605595s-14.321678 5.728671-14.321679 13.605595c0 9.309091-7.876923 17.186014-17.902098 17.186014s-17.902098-7.876923-17.902098-17.186014c0-7.160839-6.444755-13.605594-14.321678-13.605595s-14.321678 5.728671-14.321678 13.605595c0 24.346853 20.766434 43.681119 46.545454 43.681119 12.173427 0 23.630769-5.012587 32.223777-12.173427 8.593007 7.876923 20.05035 12.173427 32.223776 12.173427 25.779021 0 46.545455-19.334266 46.545454-43.681119 0-7.876923-6.444755-13.605594-14.321678-13.605595z" fill="#262626" p-id="1545"></path><path d="M311.496503 737.566434c-13.605594 0-25.062937 11.457343-25.062937 25.062937s11.457343 25.062937 25.062937 25.062937 25.062937-11.457343 25.062938-25.062937-11.457343-25.062937-25.062938-25.062937z" fill="#1E1E1E" p-id="1546"></path><path d="M712.503497 737.566434c-21.482517 0-39.384615 16.46993-39.384616 37.236363 0 7.160839 6.444755 12.88951 14.321678 12.889511s14.321678-5.728671 14.321679-12.889511c0-5.728671 5.012587-10.741259 11.457342-10.741259s11.457343 5.012587 11.457343 10.741259c0 7.160839 6.444755 12.88951 14.321678 12.889511s14.321678-5.728671 14.321679-12.889511c-1.432168-20.766434-19.334266-37.236364-40.816783-37.236363z" fill="#333333" p-id="1547"></path><path d="M201.935664 519.160839h627.289511c11.457343 0 20.766434 9.309091 20.766433 20.766434v102.4c0 11.457343-9.309091 20.766434-20.766433 20.766433H201.935664c-11.457343 0-20.766434-9.309091-20.766433-20.766433V539.927273c0-11.457343 9.309091-20.766434 20.766433-20.766434z" fill="#A6875F" p-id="1548"></path><path d="M827.076923 665.958042h-622.993007c-21.482517 0-39.384615-17.902098-39.384615-39.384615v-71.608392c0-21.482517 17.902098-39.384615 39.384615-39.384615h622.993007c21.482517 0 39.384615 17.902098 39.384615 39.384615v71.608392c0 21.482517-17.902098 39.384615-39.384615 39.384615z m-622.993007-114.573427c-2.148252 0-3.58042 1.432168-3.580419 3.58042v71.608392c0 2.148252 1.432168 3.58042 3.580419 3.580419h622.993007c2.148252 0 3.58042-1.432168 3.58042-3.580419v-71.608392c0-2.148252-1.432168-3.58042-3.58042-3.58042h-622.993007z" fill="#080808" p-id="1549"></path><path d="M741.146853 202.651748c59.434965 0 96.671329 41.532867 96.671329 102.4S788.408392 415.328671 726.825175 415.328671h-429.65035C235.591608 415.328671 186.181818 365.918881 186.181818 305.051748s49.40979-110.276923 110.993007-110.276923h194.774825c25.779021-2.148252 42.248951-4.296503 47.977623-5.728671 14.321678-4.296503 25.062937-12.173427 32.223776-17.186014 56.570629-39.384615 37.236364-72.324476 37.236364-108.128671 0-21.482517 19.334266-47.977622 54.422377-41.532868C716.083916 32.223776 786.976224 88.794406 777.667133 202.651748" fill="#B0F7FF" p-id="1550"></path><path d="M726.825175 433.230769h-429.65035c-70.892308 0-128.895105-57.286713-128.895105-128.179021s58.002797-128.179021 128.895105-128.179021h194.058741c33.655944-2.864336 41.532867-5.012587 42.965035-5.012587 10.741259-3.58042 20.05035-10.025175 26.495105-14.321678l0.716084-0.716084c36.52028-25.062937 34.372028-42.965035 31.507693-70.176224-0.716084-7.160839-1.432168-15.037762-1.432168-23.630769 0-17.902098 7.876923-35.088112 22.198601-46.545455 14.321678-12.173427 32.93986-16.46993 53.706294-12.88951 56.570629 10.025175 136.055944 70.176224 128.895105 192.626573 37.236364 18.618182 59.434965 57.286713 59.434965 108.128671 0 71.608392-58.002797 128.895105-128.895105 128.895105z m-429.65035-220.553846c-51.558042 0-93.090909 41.532867-93.090909 92.374825s41.532867 92.374825 93.090909 92.374825h429.65035c51.558042 0 93.090909-41.532867 93.090909-92.374825 0-52.274126-30.075524-84.497902-78.769231-84.497902-10.025175 0-17.902098-7.876923-17.902098-17.902098s7.876923-17.902098 17.902098-17.902098c7.160839 0 13.605594 0.716084 20.05035 1.432168 1.432168-93.090909-58.002797-138.204196-100.251748-146.081119-10.025175-2.148252-17.902098 0-24.346854 5.012588-5.728671 4.296503-9.309091 12.173427-9.309091 18.618182 0 6.444755 0.716084 12.88951 1.432168 19.334265 3.58042 29.359441 7.160839 65.87972-46.545454 103.116084l-0.716084 0.716084c-7.160839 5.012587-20.05035 13.605594-36.52028 18.618182-5.012587 1.432168-15.037762 3.58042-51.558042 6.444755H297.174825z" fill="#1F1F1F" p-id="1551"></path><path d="M497.678322 268.531469m-17.902098 0a17.902098 17.902098 0 1 0 35.804196 0 17.902098 17.902098 0 1 0-35.804196 0Z" fill="#1A1A1A" p-id="1552"></path><path d="M780.531469 343.72028h25.062937c61.583217 0 110.993007 49.40979 110.993007 110.993007S867.177622 565.706294 805.594406 565.706294h-594.349651C149.661538 565.706294 100.251748 516.296503 100.251748 454.713287S149.661538 343.72028 211.244755 343.72028h40.816783" fill="#B0F7FF" p-id="1553"></path><path d="M805.594406 583.608392h-594.349651c-70.892308 0-128.895105-58.002797-128.895105-128.895105s58.002797-128.895105 128.895105-128.895105h40.816783c10.025175 0 17.902098 7.876923 17.902098 17.902098s-7.876923 17.902098-17.902098 17.902098h-40.816783c-51.558042 0-93.090909 41.532867-93.090909 93.090909s41.532867 93.090909 93.090909 93.090909h594.349651c51.558042 0 93.090909-41.532867 93.090909-93.090909s-41.532867-93.090909-93.090909-93.090909H780.531469c-10.025175 0-17.902098-7.876923-17.902098-17.902098s7.876923-17.902098 17.902098-17.902098h25.062937c70.892308 0 128.895105 58.002797 128.895104 128.895105s-58.002797 128.895105-128.895104 128.895105z" fill="#1C1C1C" p-id="1554"></path><path d="M544.223776 268.531469c-7.876923 0-15.753846-5.728671-17.186014-14.321679-2.148252-9.309091 3.58042-19.334266 13.605595-21.482517 44.397203-10.025175 97.387413-27.927273 93.090909-58.718881-1.432168-10.025175 5.728671-18.618182 15.753846-20.05035 10.025175-1.432168 18.618182 5.728671 20.05035 15.753846 5.728671 46.545455-34.372028 79.485315-121.018182 98.819581H544.223776z" fill="#191919" p-id="1555"></path></svg>