<?xml version="1.0" standalone="no"?><!DOCTYPE svg PUBLIC "-//W3C//DTD SVG 1.1//EN" "http://www.w3.org/Graphics/SVG/1.1/DTD/svg11.dtd"><svg t="1533544195771" class="icon" style="" viewBox="0 0 1024 1024" version="1.1" xmlns="http://www.w3.org/2000/svg" p-id="8919" xmlns:xlink="http://www.w3.org/1999/xlink" width="200" height="200"><defs><style type="text/css"></style></defs><path d="M109.5 566.7l582.8-443.2s239.4 135.2 239.4 316.9l-822.2 126.3z" fill="#FFFFFF" p-id="8920"></path><path d="M100.5 753.9v94.9l822.2-126.3v-94.9z" fill="#73D37A" p-id="8921"></path><path d="M92.4 572.4c1.4-2.1 3.1-3.9 5-5.5l584.2-457.1c5.7-4.4 13.5-4.9 19.7-1.4 2.9 1.7 72.4 41.6 136.9 103.3 38.4 36.8 67 73.8 84.9 110 23.3 47 22.6 118.1 17.6 135.4l-0.7 13-830.6 122.7c-19.7 2.8-35.9 8.4-17-20.4z m601.1-426.6L149 562.2l758.3-125.8c26.4-132.8-166.9-261.6-213.8-290.6z" fill="#0C0C0C" p-id="8922"></path><path d="M108.3 841.4l2 77 816-130-8-64z" fill="#FEB100" p-id="8923"></path><path d="M925 619l-816 120 2-158 810-122z" fill="#FFFFFF" p-id="8924"></path><path d="M82.5 914.1v-311.9c0-20.1 14.7-37.2 34.5-40.2l796.3-122.3c14.4-2.2 27.4 8.9 27.4 23.5v327.3c0 13.3-9.7 24.7-22.9 26.7l-804.2 123.6c-16.3 2.5-31.1-10.2-31.1-26.7z m36-316v305.5l786.2-120.9v-305.3l-786.2 120.7z" fill="#0C0C0C" p-id="8925"></path><path d="M113.9 854.8l-5.4-35.6L897.6 700l1.9-59.4-787.1 121.2-5.4-35.6 829.8-127.8-4.1 132.7z" fill="#0C0C0C" p-id="8926"></path></svg>