<?xml version="1.0" standalone="no"?><!DOCTYPE svg PUBLIC "-//W3C//DTD SVG 1.1//EN" "http://www.w3.org/Graphics/SVG/1.1/DTD/svg11.dtd"><svg t="1533544181073" class="icon" style="" viewBox="0 0 1024 1024" version="1.1" xmlns="http://www.w3.org/2000/svg" p-id="7140" xmlns:xlink="http://www.w3.org/1999/xlink" width="200" height="200"><defs><style type="text/css"></style></defs><path d="M501.76 762.414545h62.370909l23.272727-139.636363 2.792728-16.756364h-88.436364z" fill="#AFDC02" p-id="7141"></path><path d="M339.781818 873.192727H549.236364l13.032727-81.92H467.316364c-7.447273 0-13.963636-6.516364-13.963637-13.963636v-204.8c0-7.447273 6.516364-13.963636 13.963637-13.963636h130.327272l4.654546-28.858182H286.72l53.061818 343.505454z" fill="#58D2D4" p-id="7142"></path><path d="M219.694545 471.04s0-0.930909-0.930909-0.930909c0.930909 0 0.930909 0.930909 0.930909 0.930909zM221.556364 472.901818l-0.930909-0.930909 0.930909 0.930909zM218.763636 469.178182s0-0.930909-0.930909-0.930909l0.930909 0.930909zM235.52 480.349091c-3.723636-0.930909-8.378182-1.861818-11.170909-4.654546 3.723636 2.792727 7.447273 4.654545 11.170909 4.654546zM222.487273 473.832727l-0.930909-0.930909c0 0.930909 0.930909 0.930909 0.930909 0.930909zM217.832727 467.316364v-0.930909c-0.930909 0 0 0 0 0.930909zM224.349091 475.694545L223.418182 474.763636s0 0.930909 0.930909 0.930909zM646.981818 438.458182s0 0.930909 0 0c0 0.930909 0 0 0 0zM648.843636 440.32c0.930909 0 0.930909 0.930909 0 0 0.930909 0.930909 0.930909 0 0 0zM652.567273 444.043636l0.930909 0.930909c-0.930909 0-0.930909-0.930909-0.930909-0.930909zM649.774545 441.250909l0.93091 0.930909-0.93091-0.930909zM651.636364 443.112727l0.930909 0.930909-0.930909-0.930909z" fill="#FDBD1D" p-id="7143"></path><path d="M249.483636 457.076364h-1.861818c-7.447273 3.723636-13.032727 11.170909-13.032727 20.48v2.792727H632.087273c13.032727 0 23.272727-10.24 23.272727-23.272727H249.483636z" fill="#58D2D4" p-id="7144"></path><path d="M652.567273 444.974545c1.861818 3.723636 3.723636 7.447273 3.723636 12.101819 0-4.654545-0.930909-8.378182-3.723636-12.101819zM215.970909 462.661818zM647.912727 439.389091s0.930909 0.930909 0 0c0.930909 0.930909 0 0 0 0zM216.901818 465.454545c0-0.930909 0-0.930909 0 0 0-0.930909 0-0.930909 0 0zM215.970909 460.8c0-0.930909 0-0.930909 0 0 0-0.930909 0-0.930909 0 0zM645.12 437.527273s0.930909 0.930909 0 0c0.930909 0.930909 0 0 0 0zM479.418182 215.04c0.930909 0 1.861818 0.930909 2.792727 0.930909-0.930909 0-1.861818 0-2.792727-0.930909zM499.898182 221.556364c0.930909 0 1.861818 0.930909 2.792727 0.930909-0.930909 0-1.861818-0.930909-2.792727-0.930909zM473.832727 214.109091c0.930909 0 1.861818 0 2.792728 0.930909-0.930909 0-1.861818 0-2.792728-0.930909zM494.312727 219.694545c0.930909 0 2.792727 0.930909 3.723637 0.93091-0.930909 0-1.861818-0.930909-3.723637-0.93091zM488.727273 217.832727c1.861818 0 2.792727 0.930909 4.654545 1.861818-1.861818-0.930909-2.792727-0.930909-4.654545-1.861818zM469.178182 213.178182c0.930909 0 1.861818 0 2.792727 0.930909-0.930909 0-1.861818-0.930909-2.792727-0.930909zM484.072727 216.901818c0.930909 0 2.792727 0.930909 3.723637 0.930909-1.861818-0.930909-2.792727-0.930909-3.723637-0.930909zM448.698182 211.316364h2.792727-2.792727zM464.523636 212.247273h2.792728c-0.930909 0.930909-1.861818 0.930909-2.792728 0zM435.665455 210.385455h5.585454-5.585454zM443.112727 210.385455h3.723637c-1.861818 0.930909-2.792727 0-3.723637 0zM458.938182 212.247273h2.792727-2.792727zM453.352727 211.316364h0zM383.534545 241.105455s0.930909 0 0 0c0.930909 0 0 0 0 0zM267.170909 359.330909zM267.170909 361.192727zM267.170909 357.469091zM267.170909 355.607273zM568.785455 263.447273l2.792727 2.792727-2.792727-2.792727zM572.509091 267.170909l2.792727 2.792727-2.792727-2.792727zM269.032727 364.916364c0-0.930909 0-0.930909 0 0 0-0.930909 0-0.930909 0 0zM269.963636 365.847273zM268.101818 363.054545zM378.88 241.105455h0zM456.145455 230.865455c-23.272727 0-46.545455 4.654545-67.956364 12.101818 3.723636 1.861818 6.516364 5.585455 6.516364 9.309091 0.930909 7.447273-3.723636 14.894545-11.17091 15.825454-2.792727 0.930909-68.887273 13.963636-90.298181 92.16-1.861818 6.516364-7.447273 10.24-13.032728 10.24-0.930909 0-2.792727 0-3.723636-0.930909-1.861818-0.930909-4.654545-1.861818-5.585455-3.723636-3.723636 13.032727-6.516364 26.065455-7.447272 39.098182h365.847272v-2.792728c0-52.130909-20.48-98.676364-53.992727-134.050909 1.861818 2.792727 4.654545 4.654545 6.516364 7.447273-33.512727-26.996364-77.265455-44.683636-125.672727-44.683636zM386.327273 242.036364zM387.258182 242.036364s0.930909 0 0.930909 0.930909l-0.930909-0.930909zM385.396364 241.105455zM380.741818 241.105455c0.930909 0 0.930909 0 0 0 0.930909 0 0.930909 0 0 0zM382.603636 241.105455zM557.614545 254.138182c0.930909 0.930909 1.861818 0.930909 2.792728 1.861818-0.930909-0.930909-1.861818-1.861818-2.792728-1.861818zM561.338182 256.930909c0.930909 0.930909 1.861818 0.930909 2.792727 1.861818-0.930909-0.930909-1.861818-0.930909-2.792727-1.861818zM504.552727 223.418182c0.930909 0 1.861818 0.930909 2.792728 0.930909-0.930909 0-1.861818-0.930909-2.792728-0.930909zM565.061818 259.723636c0.930909 0.930909 1.861818 1.861818 2.792727 1.861819-0.930909 0-1.861818-0.930909-2.792727-1.861819zM523.170909 231.796364c0.930909 0 1.861818 0.930909 2.792727 0.930909-0.930909 0-1.861818-0.930909-2.792727-0.930909zM513.861818 227.141818c0.930909 0 1.861818 0.930909 2.792727 0.930909-0.930909 0-1.861818-0.930909-2.792727-0.930909zM518.516364 229.003636c0.930909 0 1.861818 0.930909 2.792727 0.930909-0.930909 0-1.861818 0-2.792727-0.930909zM553.890909 250.414545c0.930909 0.930909 1.861818 0.930909 2.792727 1.861819-0.930909 0-1.861818-0.930909-2.792727-1.861819zM536.203636 238.312727l8.378182 5.585455-8.378182-5.585455zM531.549091 236.450909c0.930909 0.930909 1.861818 0.930909 2.792727 1.861818-0.930909-0.930909-1.861818-1.861818-2.792727-1.861818zM549.236364 247.621818c0.930909 0.930909 1.861818 0.930909 2.792727 1.861818-0.930909-0.930909-1.861818-0.930909-2.792727-1.861818zM527.825455 233.658182c0.930909 0.930909 1.861818 0.930909 2.792727 1.861818-0.930909-0.930909-1.861818-0.930909-2.792727-1.861818zM545.512727 244.829091c0.930909 0.930909 1.861818 1.861818 2.792728 1.861818-0.930909-0.930909-1.861818-1.861818-2.792728-1.861818zM509.207273 225.28c0.930909 0 1.861818 0.930909 2.792727 0.930909-0.930909 0-1.861818-0.930909-2.792727-0.930909z" fill="#FDBD1D" p-id="7145"></path><path d="M830.370909 164.770909l-102.4-67.025454c-6.516364-4.654545-14.894545-2.792727-19.549091 3.723636s-2.792727 14.894545 3.723637 19.549091l102.4 67.025454c2.792727 1.861818 4.654545 1.861818 7.447272 1.861819 4.654545 0 9.309091-1.861818 12.101818-6.516364 4.654545-5.585455 2.792727-14.894545-3.723636-18.618182zM687.010909 81.92c-7.447273 0-13.963636 6.516364-13.963636 13.963636v16.756364c0 7.447273 6.516364 13.963636 13.963636 13.963636s13.963636-6.516364 13.963636-13.963636v-16.756364c0-7.447273-6.516364-13.963636-13.963636-13.963636zM657.221818 412.392727v-8.378182c0-67.025455-30.72-127.534545-78.196363-168.494545l84.712727-118.225455c4.654545-6.516364 2.792727-14.894545-2.792727-19.54909-6.516364-4.654545-14.894545-2.792727-19.549091 2.792727l-84.712728 118.225454c-34.443636-22.341818-76.334545-36.305455-121.018181-36.305454C313.716364 182.458182 214.109091 282.065455 214.109091 404.014545v8.378182c-16.756364 8.378182-26.996364 26.065455-26.996364 45.614546 0 27.927273 23.272727 51.2 51.2 51.2l65.163637 421.701818c0.930909 6.516364 6.516364 12.101818 13.963636 12.101818h237.381818c6.516364 0 13.032727-4.654545 13.963637-12.101818l65.163636-421.701818c27.927273 0 51.2-23.272727 51.2-51.2-0.930909-20.48-12.101818-37.236364-27.927273-45.614546zM435.665455 210.385455H467.316364c0.930909 0 1.861818 0 2.792727 0.930909h1.861818c0.930909 0 1.861818 0 2.792727 0.930909h1.861819c0.930909 0 1.861818 0.930909 2.792727 0.930909h1.861818c0.930909 0 2.792727 0.930909 3.723636 0.930909h0.930909c1.861818 0 2.792727 0.930909 4.654546 1.861818h0.930909c0.930909 0 2.792727 0.930909 3.723636 0.930909 0.930909 0 0.930909 0 1.861819 0.930909 0.930909 0 1.861818 0.930909 2.792727 0.930909 0.930909 0 0.930909 0.930909 1.861818 0.930909s1.861818 0.930909 2.792727 0.93091c0.930909 0 0.930909 0.930909 1.861818 0.930909s1.861818 0.930909 2.792728 0.930909c0.930909 0 0.930909 0.930909 1.861818 0.930909s1.861818 0.930909 2.792727 0.930909c0.930909 0 0.930909 0.930909 1.861818 0.930909s1.861818 0.930909 2.792728 0.930909c0.930909 0 0.930909 0.930909 1.861818 0.930909s1.861818 0.930909 2.792727 0.930909c0.930909 0 0.930909 0.930909 1.861818 0.930909 0.930909 0.930909 1.861818 0.930909 2.792728 1.861819 0.930909 0 0.930909 0.930909 1.861818 0.930909 0.930909 0.930909 1.861818 0.930909 2.792727 1.861818 0 0 0.930909 0 0.930909 0.930909l8.378182 5.585454s0.930909 0 0.930909 0.93091c0.930909 0.930909 1.861818 1.861818 2.792727 1.861818l0.930909 0.930909c0.930909 0.930909 1.861818 0.930909 2.792728 1.861818l0.930909 0.930909c0.930909 0.930909 1.861818 0.930909 2.792727 1.861818 0.930909 0 0.930909 0.930909 1.861818 0.930909 0.930909 0.930909 1.861818 0.930909 2.792727 1.861819l0.93091 0.930909c0.930909 0.930909 1.861818 0.930909 2.792727 1.861818l0.930909 0.930909c0.930909 0.930909 1.861818 1.861818 2.792727 1.861818l0.930909 0.930909 2.792728 2.792727 0.930909 0.93091 2.792727 2.792727 0.930909 0.930909c33.512727 34.443636 53.992727 81.92 53.992727 134.050909v2.792727H242.967273v-2.792727c0-102.4 86.574545-188.974545 192.698182-188.974545z m107.054545 703.767272H329.541818l-1.861818-13.032727h217.832727l-2.792727 13.032727z m47.476364-308.130909l-2.792728 16.756364-23.272727 139.636363h-81.92V586.472727h111.709091l-3.723636 19.549091z m12.101818-76.334545l-4.654546 28.858182h-130.327272c-7.447273 0-13.963636 6.516364-13.963637 13.963636v204.8c0 7.447273 6.516364 13.963636 13.963637 13.963636h94.021818L549.236364 873.192727H323.025455l-55.854546-363.985454H605.090909l-2.792727 20.48zM642.327273 437.527273h1.861818l0.930909 0.930909h0.930909s0.930909 0 0.930909 0.930909l0.930909 0.930909h0.930909s0.930909 0 0.930909 0.930909l0.93091 0.930909 0.930909 0.930909 0.930909 0.930909 0.930909 0.930909c1.861818 3.723636 3.723636 7.447273 3.723636 12.101819 0 13.032727-10.24 23.272727-23.272727 23.272727H235.52c-3.723636-0.930909-8.378182-1.861818-11.170909-4.654546L223.418182 474.763636h-0.930909l-0.930909-0.930909-0.930909-0.930909-0.93091-0.930909s0-0.930909-0.930909-0.930909c0 0 0-0.930909-0.930909-0.930909 0 0 0-0.930909-0.930909-0.930909 0 0 0-0.930909-0.930909-0.930909 0 0 0-0.930909-0.930909-0.930909v-0.930909-0.93091-0.930909-0.930909-0.930909-1.861818-0.930909-1.861818c0-9.309091 5.585455-16.756364 13.032727-20.48h1.861818" fill="#B74B00" p-id="7146"></path><path d="M281.134545 371.432727c6.516364 0 12.101818-3.723636 13.032728-10.24 21.410909-78.196364 86.574545-91.229091 90.298182-92.16 7.447273-1.861818 13.032727-8.378182 11.170909-15.825454-0.930909-4.654545-3.723636-7.447273-6.516364-9.309091 0 0-0.930909 0-0.930909-0.930909h-0.930909-0.930909-0.930909-0.930909-0.93091-0.930909-0.930909-0.930909-0.930909-0.930909c-3.723636 0.930909-85.643636 16.756364-111.709091 112.64V362.123636c0 0.930909 0 0.930909 0.930909 1.861819 0 0.930909 0.930909 0.930909 0.930909 1.861818l0.930909 0.930909 0.930909 0.930909c1.861818 1.861818 3.723636 2.792727 5.585455 3.723636 1.861818-0.930909 2.792727 0 4.654545 0z" fill="#B74B00" p-id="7147"></path></svg>